<?xml version="1.0" encoding="UTF-8"?>
<svg version="1.1" viewBox="0 0 2000 808" width="500" height="202" xmlns="http://www.w3.org/2000/svg">
<path transform="translate(1441,30)" d="m0 0h7l2 4-3 5-2 7h-3l-3-4-12 6v2l9 1 11-3 2-2-1-1v-5l3-1 4 3 20-9h7l15 7 14 3 8 6 4 5 2 4v16l-3 15 12 3 47 7 15 4 8 6 5 8 5 16 2 14 1 17v108l-2 19-5 16-5 9-5 5-8 6-28 15-10 4-4 1h-16l-22-3-1-1-15-3-19-5-9-4-4-1-17 10-33 17-21 7-6 1h-30l-21-4-16-6-17-9-8-7-9-11-7-10-5-11v-2l-9 7-2 1h-11l-16-6-5-4-5-13-4-22-1-15-1-33v-49l1-20 2-21 4-11 11-12 17-16 14-12 5-5 7-13 9-3h34l7 3 4 4 2 9v7h11l11 2 3-13 5-9 7-7 16-11 19-8 5 1h3l16-4zm-3 3-12 6-10 7-5 8v5l7 1-1-2h-2v-6l9-6 13-8 4-5zm39 4-13 6-11 7-7 8-3 4h11l10-4 16-10v-3l-19 10-8 4-4 1 2-4 12-7 11-6 4-3zm-72 7-14 9-9 7-7 6-4 6 2 1 44 3 18 3 18 6 5-5 7-8 19-11 8-4-3 5-14 10-10 9-5 5 1 4 8 4h7l12-6 17-12 7-5-1 5-12 9-20 12-4 2-8-1-9-5h-2l-5 13-1 10 12 12 8 11 5 11 4 13 2 29 3 2v-13l-1-19-5-23-4-16 13-13 13-10 14-12 4-16v-11l-5-8-7-4-6-1h-8l-14 7-11 7-10 5-3 1h-26l-4-2-14-2-5-5 1-8 1-7zm15 12-2 2 5 3 7 1 2-5zm17 1-3 5 6-1v-4zm-146 8-3 3 1 4 2 1h27l9-2 1-4-2-2zm78 12-2 5-3 18v5l4 2 67 8h7l3-9 4-13v-5l-11-4-17-3-47-4zm-42 1-10 1h-34l-1 4 5 5 9 2h9l14-2 9-4 1-5zm-53 7-7 7-7 8-7 7-7 8-8 8-5 8-1 6 3 6 5 4 11 3h16l10-2v-3l-16-3-5-5-1-2v-8l4-7 4-5 8-5 11-3 10 1 6 4 5 4 4 6 1 7-8 7-13 6-7 3 4 1 10-4 12-7 10-9 18-12 9-4 11-1 3-3 1-8v-9l-22-1-16 8-7 1-19-1-8-2-7-4zm239 12-11 9-14 13 2 2 61 7h18l13-5 9-6 2-2v-4l-10-4-25-4-40-6zm-159 15-11 2-14 9-16 13-12 9-12 6-13 4-14 3h-8l-16-4-7-4h-2l-1 8v32l1 24 1 41 2 20 4 18 3 5 18 6 8-2 6-4 1-3-4-15-1-5v-20l3-20 5-16 7-14 8-10 11-10 15-10 19-11 11-6 5-5 5-31v-9zm9 1-2 7-4 27 1 4 16-6 9-2h23l16 3 12 5 18 11 10 8 10 9h2l-1-14-5-17-6-10-8-8-11-8-1-1-78-8zm-79 0-13 4-4 4 2 4 4 1 9-2 6-5v-5zm13 3-7 10-7 4-8 1-10-2-5-2v6l4 4 7 2 13-1 11-4 8-6-1-7zm302 4-10 8-10 5-12 3h-25l-45-6-13-3-3-1 1 11 4 22 2 26v17l7 20 3 13 2 17v18l-3 15-7 17-6 11-6 8v4l21 5 22 4 22 2 11-1 42-21 5-6 3-9 4-37v-38l1-8v-33l-1-21-4-32-4-10zm-212 28-14 2v2l21 4 20 7 16 8 9 6 9 8 11 14 7 10 8 17 3 12 3 22v9l-3 21-5 21v3l4-2 7-10 5-10 4-18v-26l-3-20-6-16-9-16-12-14-12-11-15-11-21-9-8-2zm-20 9-9 2-4 4v2l16 2 19 7 27 13 7 6h2l2 4 10 10 6 9 8 16 5 18 2 12v21l-4 24-8 22 6-2 11-8 6-9 3-8 4-30v-16l-3-20-4-12-8-15-8-10-7-1-5-4-1-6 4 1-3-6-4-1-5 4-1 4 5 6 11 11 6-2 2-1-2 5-4 2-4-1-2-3h-2l-2-4h-2v-2l-8-7-3-4 2-5 7-6v-2l-17-9-22-8-14-3zm-21 13-13 3-2 1v2h23l15 3 18 7 13 8 11 9 15 15 9 15 5 12 3 11 2 24-3 23-8 20-6 12v3l5-1 7-7 6-12 5-15 3-17 1-16-2-16-4-14-6-15-7-13-8-8-3-4h-2l-1-3-13-10-14-8-15-6-15-3zm-14 16-16 4-14 8-12 11-8 16-6 21-1 6v12l3 24 4 13 5 12 9 12 9 10 13 9 11 6 16 4 26 3h9l13-2 9-4 9-6 7-6 9-13 7-16 3-15v-19l-3-23-8-19-9-12-11-10-15-11-16-8-13-4-21-3z"/>
<path transform="translate(741,465)" d="m0 0h11l14 2 12 5 8 7 4 8 1 3v8l-5 14-7 12-10 13-12 14-12 13-8 8-8 7-13 12-11 9-13 11-14 11-16 12-13 10-21 16-14 10-18 13-14 10-4 8-13 36-7 21v6l2 4-1 5-6 1-10-2-4-4-1-3v-14l6-25 4-15v-5l-3-3 1-5 7-6 10-22 24-60 16-35 17-34 8-12 5-3 9 2 4 2-1 7-12 31-18 42-13 31-6 15v2l11-9 14-11 13-10 14-11 13-11 11-9 13-11 14-12 17-16 13-13 7-8 12-14 9-14 5-10 1-3v-13l-4-5-4-1-19 1-24 5-35 10-34 12-29 12-26 12-27 13-19 10-24 13-24 14-24 15-24 16-18 13-19 14-17 14-15 14-10 12-6 10-1 3 36-7 36-9 44-12 22-5 7-1h14l7 2 1 7-4 1-5-2-7 1-64 21-33 10-23 6-21 3h-18l-12-3-8-5-3-5v-8l5-10 7-9 11-12 13-12 11-9 16-12 36-24 21-13 25-15 18-10 24-13 19-10 21-10 12-6 32-14 36-14 36-12 26-7 31-6z"/>
<path transform="translate(278,241)" d="m0 0h8l11 2 6 4 4 5v8l-6 23-19 53-15 41-14 35-23 57-24 56 17-7 34-12 42-13 38-10 20-4 17-1 9 1 1 6-3 2-23 6-37 11-41 14-29 11-30 13-24 11-21 11-15 10-7 6-14 7h-8l-6-2-3-3 1-6 7-8 16-12 14-9 14-8 3-4 12-36 18-53 17-48 21-62 13-42 5-16-14 9-12 9-11 9-13 11-30 27-7 7-8 7-51 51-7 8-9 10-13 17-4 6 5-1 23-10 15-5 5 1-2 4-22 13-15 9-14 6-4 1h-16l-8-4-2-3v-7l8-16 16-21 9-11 11-12 12-13 14-14 2-3h2l2-4 8-7 20-20 8-7 13-12 11-9 14-12 13-10 18-14 14-10 13-9 14-7z"/>
<path transform="translate(1678,321)" d="m0 0 9 3 4 3-1 9-14 36-13 32-11 28-16 41-7 17 4-1 2-4 14-14 8-7 10-9 7-4 6 1 6 4 5 6 1 4v13l-2 28 16-8 18-10 16-11 7-18 7-20 12-25 5-7 7 1 7 3v7l-4 12-13 35-3 9v3l10-11 7-8 12-14 16-17 10-10 6-1 5 2 1 4-5 17-10 29 6-4 9-8 10-8 17-14 13-10 14-9 5-2h5l2 4-5 6-12 9-13 10-11 9-13 11-11 9-15 13-7 6-12 36-13 43-8 27-5 10-4 5-10 5-20 2-17-2-21-5-16-6-8-6-2-3 1-8 9-10 24-24 10-8 15-13 11-9 13-11 19-14 9-7 5-13 3-9-5 5-9 12-9 10-8 7-2 1h-7l-8-4-3-3-2-4-5 2-11 9-15 10-8 4-3 1h-9l-8-4-7-8-3-6v-29l-14 14-7 8-9 11-10 13-12 17-8 10-4 4-9-3-7-4-4-6v-7l7-24 10-27 16-39 15-36 13-28 13-29 10-19 4-6zm99 195-10 9-14 11-28 24-18 18-10 13-2 4 1 4 6 3 15 4 6 1h18l8-5 6-10 9-27 12-40 2-9z"/>
<path transform="translate(699,320)" d="m0 0 10 3 5 5-1 8-2 6 4-2 4-5 5-3h9l6 1h23l-1 4-5 5h-22l-8 6-8 9-11 16-9 15-12 23-4 6-3 1-10-4-5-6v-11l1-6-12 14-17 17-8 5-9 1-8-3-5-4-3-5-1-4v-13l3-22-8 11-8 12-10 14-11 13-7 7-6 3-10-1-9-6-4-6-1-12-1-3-9 11-14 12-10 6h-14l-8-4-3-3-2-7-5 5-9 10-9 11-14 14-10 5h-10l-10-3-5-4-3-5-1-4v-9l4-15 8-18 10-17 10-14 10-11 5-5 7-5 10-3 13 2 6 4 3 7-2 11-1 3h8l8 3 2 2-1 12-3 15v5l13-12 10-8 12-11 8-7 6-7 9-22 5-6 4-1 10 5 2 3-1 10-7 27-4 15v3l12-14 9-11 13-16 11-13 8-10 8-9 5-1 10 5 1 1-1 9-9 30-3 14-1 14 9-9 8-7 16-16 8-7 15-14 15-28 5-6zm-237 55-7 10-10 16-6 10-10 22-1 6 4-2 11-12 12-13 11-13 2-3-1-7-1-2-1-10-1-2z"/>
<path transform="translate(1319,493)" d="m0 0 5 1 7 3 3 4-1 8-2 6 5-2 2-4 7-4h10l6 1h11l6-1 3 1-1 7-4 2h-22l-8 6-11 13-10 15-12 21-10 19-1 1-8-1-6-3-4-5v-10l6-23 6-15-1-1-17 16-8 7-16 15-12 11-5 12-15 52-9 30-8 20-6 10-8 7-7 3-21 3h-55l-7-3-5-4-1-7 5-10 7-9 11-12 10-10 8-7 15-13 42-36 13-11 7-6 3-9 3-10-5 5-11 14-9 10-8 6h-10l-7-3-6-7-2-5v-18l6-18 9-17 8-11 7-8 11-8 5-2 8-1 9 2 3 2v2l4-1 3-4h7l8 4 4 4 1 6-5 26-4 13 8-7 13-11 14-12 14-11 9-7 7-10 6-9zm-99 27-9 9-10 14-6 10-8 18-2 7 1 4 8-9 7-9 14-20 9-15 1-6-2-3zm-14 95-12 12-8 7-13 12-10 9-13 12-21 21-8 10-6 9v1h43l11-2 8-4 7-8 7-16 9-30 8-33z"/>
<path transform="translate(1542,440)" d="m0 0 7 1 3 2 2 11 8-7 8-6 8-1 8 3 5 5 3 9-2 14-5 18-13 35-10 21-7 9-4 3-10-1-8-4-6-7-4-8v-2h-2l-1 6-15 40-9 28-7 27-2 12-2 1-7-6-2-4v-15l6-29 10-36 11-33-10 11-12 9-8 4h-13l-7-3-4-5-1-7-5 5-9 10-7 8-9 10-8 8-10 5h-10l-11-4-5-5-3-7v-9l4-15 9-20 11-18 9-12 9-10 9-8 8-4 9-1 11 3 5 5 2 4-2 16 6-2 10 5 1 6-4 21v6l13-12 11-9 14-12 9-8 6-10 10-24 8-16zm28 21-12 12-8 7-7 9-3 7v18l4 17 2 2 3-5 13-30 7-21 3-12v-4zm-129 26-14 21-8 14-8 16-5 14 4-2 12-13 13-14 9-11 4-5-2-5-3-15z"/>
<path transform="translate(818,466)" d="m0 0 7 2 6 3 1 3-5 15-15 38-20 50-19 49-3 9 15-15 8-7 14-13 6-4 7 1 6 4 5 6 1 4v13l-2 28 16-8 16-9 18-12 3-6 5-15 12-25 9-13 2-2 6 1 11 6 1 2v7l-16 44-5 16v3l9-10 12-17 8-13 7-14 2-8-1-7-4-6-14-7-3-3 1-5 8 1 13 4 10 7 7 9 1 3v13l-5 12-9 15-12 19-12 17-7 9-5 6-7 4-9-1-9-5-6-7-3-8-1-9-8 6-9 7-16 10-8 3h-7l-7-3-8-7-4-9v-22l1-6-4 2-7 8-11 12-9 11-8 10-13 19-9 11-4 4-10-3-8-7-2-3v-7l6-21 11-30 12-29 15-37 15-33 19-41 9-16z"/>
<path transform="translate(1038,458)" d="m0 0 4 1 10 5-1 11-3 8 18-6 44-11 19-4 6 1 1 5-7 3-44 13-31 10-11 3-3 9-15 38-11 30-8 24-8 32-2 10-2 20-1 2 6-5 9-11 9-9 1-2h2l2-4 14-15 9-10 31-31 6-10 12-23 8-11 5-1 11 6 3 3v7l-15 41-5 15-1 7 9-10 12-17 8-13 7-14 2-7-1-8-4-6-14-7-3-4 1-4 8 1 13 4 9 6 6 7 3 7 1 7-2 8-8 16-11 18-10 15-12 17-9 10-6 3-9-1-9-5-6-7-3-8v-19l-5 5-13 16-13 15-9 11-12 14-11 13-9 7-9-1-6-3-5-5-4-6-3-10-1-7v-13l3-21 5-21 7-20 14-37 11-27-14 6-26 8h-6l-1-6 8-5 21-10 18-7 7-3 6-10 10-20z"/>
<path transform="translate(905,277)" d="m0 0 12 3 3 2-1 10-14 43-3 11 7-8 10-13 14-17 7-8 9-8 5-2 10 1 6 4 3 6v21l-1 18 9-6 19-14 21-16 14-10 5-3 7 1 4 2-2 5-4 5h-2l-2 4-8 8-11 9-15 13-18 13-8 4-3 1h-12l-8-4-4-5-2-5v-29l-8 9-13 17-8 11-12 17-10 14-7 6h-9l-8-3-5-4-2-4v-21l-13 13-11 9-14 12-13 9-13 6-5 1h-13l-13-5-6-5-5-10-1-8 3-20 6-18 9-21 7-12 8-10 7-5 7-2h7l10 3 6 5 3 6 1 4-1 14-4 15-8 16-6 7-6 3-6 1-10-2-7-3-1 9-1 15 1 9 7-3 18-11 18-14 39-30 8-6 11-23 9-20 5-6zm-89 26-8 10-8 16-4 9v7l3 3 4-1 6-10 5-11 5-19v-4z"/>
<path transform="translate(1342,208)" d="m0 0 20 1 16 4 12 6 5 4 7 10 7 15 4 16 1 7v21l-3 12-6 10-13 13-11 6-5 1h-21l-15-3-16-8-9-7-6-7-6-14-4-14v-22l2-12 5-13 9-13 10-8 5-3zm10 33-9 3-5 4-5 9-3 16 1 13 6 9 10 7 9 3h8l10-3 9-6 5-6 3-6v-19l-3-7-6-8-10-7-7-2z"/>
<path transform="translate(1138,235)" d="m0 0 10 1 12 6 6 8v7l-4 8-9 12-10 9-3 1-8-5-2-3 1-7 7-14-3 1-11 8-8 8-8 13-1 4 21 5 12 5 7 7 2 4-1 9-6 9-11 11-11 9-15 12-6 1-7-4-1-6 8-10 7-8 8-7 9-9 5-7 1-4-21-3-14-5-10-9-2-5v-8l6-11 7-9 11-11 14-8 12-4z"/>
<path transform="translate(1351,243)" d="m0 0h15l10 4 6 5 6 11 1 7v9l-3 9-9 10-8 4-12 1-9-3-10-9-3-6-1-15 2-12 5-9 5-4zm6 9-5 3-4 7-1 3v9l4 8 7 6 4 2 9-1 4-4-1-2-4 3h-9l-5-3-3-5-1-4v-11l3-6 4-3v-2zm5 5-4 4-1 6 2 1 3-5 7-3-3-3zm16 3-1 1v7l1 5 2-4 1-8zm-1 13 1 4zm-1 4 1 4zm-1 4 1 2z"/>
<path transform="translate(1030,136)" d="m0 0h8l6 4 4 5 4 13-1 9-7 9-9 8-10 5-5-1-1-5 6-11v-2l-9-4-1-1v-8l4-10 4-6 4-4z"/>
<path transform="translate(1553,142)" d="m0 0 3 1 3 18 3 27v95l-2 20-3 14-3 6-2-2 2-36v-92l-2-35v-15z"/>
<path transform="translate(1521,246)" d="m0 0h11l6 5 2 9-2 7-7 6h-8l-8-4-3-6 1-8 4-7zm3 5-5 5v6l5 5h6l4-5-1-7-4-4z"/>
<path transform="translate(1337,131)" d="m0 0h2l-1 6-12 11-9 9-10 7-11 4-4-1 1-3 16-11 10-9 7-6z"/>
<path transform="translate(1274,173)" d="m0 0h3l1 3-7 35-2 6h-3l-1-4v-16l3-12z"/>
<path transform="translate(1330,93)" d="m0 0 13 2 5 3 1 4-2 3-3 1h-11l-7-2-1-7z"/>
<path transform="translate(1257,107)" d="m0 0 4 1v6l-2 3-4-1-1-1 1-7z"/>
</svg>
